<svg width="53" height="53" viewBox="0 0 53 53" fill="none" xmlns="http://www.w3.org/2000/svg">
<g id="icons8-instagram">
<path id="Vector" d="M18.2187 5.52087C11.2172 5.52087 5.52083 11.2173 5.52083 18.2188V34.7813C5.52083 41.7828 11.2172 47.4792 18.2187 47.4792H34.7812C41.7828 47.4792 47.4792 41.7828 47.4792 34.7813V18.2188C47.4792 11.2173 41.7828 5.52087 34.7812 5.52087H18.2187ZM37.5417 13.25C38.7618 13.25 39.75 14.2383 39.75 15.4584C39.75 16.6774 38.7618 17.6667 37.5417 17.6667C36.3216 17.6667 35.3333 16.6774 35.3333 15.4584C35.3333 14.2383 36.3216 13.25 37.5417 13.25ZM26.5 15.4584C32.5884 15.4584 37.5417 20.4117 37.5417 26.5C37.5417 32.5884 32.5884 37.5417 26.5 37.5417C20.4116 37.5417 15.4583 32.5884 15.4583 26.5C15.4583 20.4117 20.4116 15.4584 26.5 15.4584ZM26.5 18.7709C25.485 18.7709 24.4799 18.9708 23.5422 19.3592C22.6044 19.7476 21.7524 20.317 21.0346 21.0347C20.3169 21.7524 19.7476 22.6045 19.3592 23.5422C18.9707 24.48 18.7708 25.485 18.7708 26.5C18.7708 27.5151 18.9707 28.5201 19.3592 29.4579C19.7476 30.3956 20.3169 31.2477 21.0346 31.9654C21.7524 32.6831 22.6044 33.2524 23.5422 33.6409C24.4799 34.0293 25.485 34.2292 26.5 34.2292C27.515 34.2292 28.5201 34.0293 29.4578 33.6409C30.3956 33.2524 31.2476 32.6831 31.9653 31.9654C32.6831 31.2477 33.2524 30.3956 33.6408 29.4579C34.0292 28.5201 34.2292 27.5151 34.2292 26.5C34.2292 25.485 34.0292 24.48 33.6408 23.5422C33.2524 22.6045 32.6831 21.7524 31.9653 21.0347C31.2476 20.317 30.3956 19.7476 29.4578 19.3592C28.5201 18.9708 27.515 18.7709 26.5 18.7709Z" fill="#DF8480"/>
</g>
</svg>
